<svg xmlns="http://www.w3.org/2000/svg" xmlns:xlink="http://www.w3.org/1999/xlink" width="512" zoomAndPan="magnify" viewBox="0 0 384 383.999986" height="512" preserveAspectRatio="xMidYMid meet" version="1.0"><defs><g/><clipPath id="7c0ee94682"><path d="M 238 198.417969 L 330.453125 198.417969 L 330.453125 291.320312 L 238 291.320312 Z M 238 198.417969 " clip-rule="nonzero"/></clipPath><clipPath id="181d307327"><path d="M 216 179 L 328 179 L 328 291.144531 L 216 291.144531 Z M 216 179 " clip-rule="nonzero"/></clipPath><clipPath id="43744b1523"><path d="M 0.359375 0.761719 L 321 0.761719 L 321 277 L 0.359375 277 Z M 0.359375 0.761719 " clip-rule="nonzero"/></clipPath><clipPath id="1bf45e5ac2"><rect x="0" width="321" y="0" height="277"/></clipPath><clipPath id="fc1c0e0a82"><rect x="0" width="334" y="0" height="296"/></clipPath></defs><g transform="matrix(1, 0, 0, 1, 21, 41)"><g clip-path="url(#fc1c0e0a82)"><g clip-path="url(#7c0ee94682)"><path fill="#ff938d" d="M 327.511719 239.492188 L 293.898438 254.773438 L 278.625 288.378906 C 278.441406 288.785156 278.203125 289.15625 277.910156 289.488281 C 277.613281 289.824219 277.28125 290.109375 276.902344 290.34375 C 276.523438 290.582031 276.121094 290.757812 275.691406 290.871094 C 275.261719 290.988281 274.824219 291.039062 274.378906 291.027344 C 273.933594 291.015625 273.5 290.9375 273.074219 290.796875 C 272.652344 290.652344 272.261719 290.453125 271.898438 290.195312 C 271.535156 289.9375 271.214844 289.636719 270.941406 289.285156 C 270.667969 288.933594 270.453125 288.546875 270.292969 288.132812 L 238.335938 205.046875 C 238.1875 204.640625 238.097656 204.21875 238.070312 203.785156 C 238.039062 203.351562 238.070312 202.921875 238.164062 202.5 C 238.257812 202.074219 238.410156 201.671875 238.617188 201.292969 C 238.828125 200.910156 239.085938 200.566406 239.394531 200.261719 C 239.699219 199.953125 240.042969 199.695312 240.425781 199.488281 C 240.804688 199.28125 241.207031 199.128906 241.632812 199.035156 C 242.054688 198.941406 242.484375 198.910156 242.917969 198.941406 C 243.351562 198.96875 243.773438 199.058594 244.179688 199.207031 L 327.265625 231.164062 C 327.675781 231.328125 328.054688 231.546875 328.398438 231.824219 C 328.746094 232.097656 329.042969 232.417969 329.296875 232.78125 C 329.550781 233.144531 329.746094 233.535156 329.886719 233.953125 C 330.023438 234.375 330.101562 234.804688 330.113281 235.246094 C 330.125 235.6875 330.074219 236.125 329.960938 236.550781 C 329.847656 236.976562 329.675781 237.378906 329.445312 237.757812 C 329.214844 238.132812 328.933594 238.472656 328.605469 238.765625 C 328.277344 239.0625 327.910156 239.304688 327.511719 239.492188 Z M 327.511719 239.492188 " fill-opacity="1" fill-rule="nonzero"/></g><g clip-path="url(#181d307327)"><path fill="#ff0000" d="M 324.71875 228.554688 L 283.972656 247.078125 L 265.453125 287.816406 C 265.230469 288.308594 264.941406 288.757812 264.585938 289.164062 C 264.230469 289.570312 263.820312 289.914062 263.363281 290.199219 C 262.90625 290.484375 262.417969 290.699219 261.894531 290.839844 C 261.375 290.980469 260.84375 291.042969 260.304688 291.027344 C 259.765625 291.011719 259.238281 290.917969 258.726562 290.746094 C 258.214844 290.574219 257.738281 290.332031 257.296875 290.019531 C 256.859375 289.707031 256.472656 289.339844 256.140625 288.914062 C 255.808594 288.488281 255.546875 288.023438 255.351562 287.519531 L 216.613281 186.796875 C 216.429688 186.300781 216.324219 185.792969 216.289062 185.265625 C 216.253906 184.742188 216.292969 184.222656 216.40625 183.707031 C 216.519531 183.191406 216.703125 182.707031 216.953125 182.242188 C 217.207031 181.78125 217.519531 181.367188 217.894531 180.992188 C 218.265625 180.621094 218.683594 180.308594 219.144531 180.054688 C 219.605469 179.804688 220.09375 179.621094 220.609375 179.507812 C 221.121094 179.394531 221.640625 179.355469 222.167969 179.390625 C 222.691406 179.425781 223.203125 179.535156 223.695312 179.714844 L 324.417969 218.453125 C 324.914062 218.65625 325.375 218.921875 325.792969 219.257812 C 326.214844 219.589844 326.574219 219.976562 326.882812 220.417969 C 327.1875 220.855469 327.425781 221.332031 327.59375 221.839844 C 327.761719 222.347656 327.855469 222.871094 327.871094 223.40625 C 327.886719 223.941406 327.824219 224.46875 327.6875 224.988281 C 327.550781 225.503906 327.339844 225.992188 327.0625 226.449219 C 326.78125 226.90625 326.441406 227.3125 326.042969 227.671875 C 325.644531 228.03125 325.203125 228.324219 324.71875 228.554688 Z M 324.71875 228.554688 " fill-opacity="1" fill-rule="nonzero"/></g><g clip-path="url(#43744b1523)"><g><g clip-path="url(#1bf45e5ac2)"><g fill="#ff0000" fill-opacity="0.502"><g transform="translate(53.517891, 250.077633)"><g><path d="M -14.921875 21.828125 C -14.921875 21.828125 -16.023438 18.785156 -18.234375 12.703125 C -20.441406 6.628906 -23.484375 -0.734375 -27.359375 -9.390625 C -30.859375 -16.390625 -33.847656 -21.6875 -36.328125 -25.28125 C -38.816406 -28.875 -40.0625 -30.671875 -40.0625 -30.671875 C -24.40625 -33.804688 -10.640625 -38.363281 1.234375 -44.34375 C 13.117188 -50.332031 23.710938 -58.484375 33.015625 -68.796875 C 42.316406 -79.117188 50.75 -92.476562 58.3125 -108.875 C 72.863281 -111.082031 85.113281 -113.796875 95.0625 -117.015625 C 105.007812 -120.242188 113.25 -124.160156 119.78125 -128.765625 C 126.320312 -133.367188 131.664062 -138.988281 135.8125 -145.625 C 139.957031 -152.257812 143.597656 -160.085938 146.734375 -169.109375 L 17.125 -169.109375 L 34.546875 -227.6875 L 265.546875 -227.96875 L 254.78125 -226.03125 C 247.21875 -224.75 240.257812 -221.664062 233.90625 -216.78125 C 227.550781 -211.894531 222.347656 -205.21875 218.296875 -196.75 C 211.484375 -177.957031 204.300781 -161.695312 196.75 -147.96875 C 189.195312 -134.25 180.90625 -122.457031 171.875 -112.59375 C 162.851562 -102.738281 152.535156 -94.3125 140.921875 -87.3125 C 129.316406 -80.3125 115.960938 -74.144531 100.859375 -68.8125 C 94.046875 -57.195312 86.90625 -46.96875 79.4375 -38.125 C 71.976562 -29.289062 63.78125 -21.375 54.84375 -14.375 C 45.914062 -7.375 35.785156 -0.972656 24.453125 4.828125 C 13.117188 10.640625 -0.00390625 16.304688 -14.921875 21.828125 Z M -14.921875 21.828125 "/></g></g></g><g fill="#ff0000" fill-opacity="1"><g transform="translate(41.552689, 243.169519)"><g><path d="M -14.921875 21.828125 C -14.921875 21.828125 -16.023438 18.785156 -18.234375 12.703125 C -20.441406 6.628906 -23.484375 -0.734375 -27.359375 -9.390625 C -30.859375 -16.390625 -33.847656 -21.6875 -36.328125 -25.28125 C -38.816406 -28.875 -40.0625 -30.671875 -40.0625 -30.671875 C -24.40625 -33.804688 -10.640625 -38.363281 1.234375 -44.34375 C 13.117188 -50.332031 23.710938 -58.484375 33.015625 -68.796875 C 42.316406 -79.117188 50.75 -92.476562 58.3125 -108.875 C 72.863281 -111.082031 85.113281 -113.796875 95.0625 -117.015625 C 105.007812 -120.242188 113.25 -124.160156 119.78125 -128.765625 C 126.320312 -133.367188 131.664062 -138.988281 135.8125 -145.625 C 139.957031 -152.257812 143.597656 -160.085938 146.734375 -169.109375 L 17.125 -169.109375 L 34.546875 -227.6875 L 265.546875 -227.96875 L 254.78125 -226.03125 C 247.21875 -224.75 240.257812 -221.664062 233.90625 -216.78125 C 227.550781 -211.894531 222.347656 -205.21875 218.296875 -196.75 C 211.484375 -177.957031 204.300781 -161.695312 196.75 -147.96875 C 189.195312 -134.25 180.90625 -122.457031 171.875 -112.59375 C 162.851562 -102.738281 152.535156 -94.3125 140.921875 -87.3125 C 129.316406 -80.3125 115.960938 -74.144531 100.859375 -68.8125 C 94.046875 -57.195312 86.90625 -46.96875 79.4375 -38.125 C 71.976562 -29.289062 63.78125 -21.375 54.84375 -14.375 C 45.914062 -7.375 35.785156 -0.972656 24.453125 4.828125 C 13.117188 10.640625 -0.00390625 16.304688 -14.921875 21.828125 Z M -14.921875 21.828125 "/></g></g></g></g></g></g></g></g></svg>