<svg xmlns="http://www.w3.org/2000/svg" xmlns:xlink="http://www.w3.org/1999/xlink" width="1200" zoomAndPan="magnify" viewBox="0 0 900 225" height="300" preserveAspectRatio="xMidYMid meet" version="1.0"><defs><g/><clipPath id="6e0252f403"><rect x="0" width="891" y="0" height="165"/></clipPath></defs><g transform="matrix(1, 0, 0, 1, 9, 32)"><g clip-path="url(#6e0252f403)"><g fill="#ff0000" fill-opacity="0.502"><g transform="translate(31.928969, 148.554384)"><g><path d="M -8.84375 12.9375 C -8.84375 12.9375 -9.5 11.132812 -10.8125 7.53125 C -12.125 3.925781 -13.925781 -0.4375 -16.21875 -5.5625 C -18.289062 -9.71875 -20.0625 -12.859375 -21.53125 -14.984375 C -23.007812 -17.117188 -23.75 -18.1875 -23.75 -18.1875 C -14.46875 -20.039062 -6.304688 -22.738281 0.734375 -26.28125 C 7.773438 -29.832031 14.050781 -34.664062 19.5625 -40.78125 C 25.082031 -46.894531 30.082031 -54.8125 34.5625 -64.53125 C 43.1875 -65.84375 50.445312 -67.453125 56.34375 -69.359375 C 62.238281 -71.273438 67.125 -73.597656 71 -76.328125 C 74.882812 -79.054688 78.050781 -82.382812 80.5 -86.3125 C 82.957031 -90.25 85.113281 -94.894531 86.96875 -100.25 L 10.15625 -100.25 L 20.46875 -134.96875 L 157.40625 -135.125 L 151.015625 -133.984375 C 146.546875 -133.222656 142.425781 -131.394531 138.65625 -128.5 C 134.882812 -125.601562 131.800781 -121.644531 129.40625 -116.625 C 125.363281 -105.488281 121.101562 -95.851562 116.625 -87.71875 C 112.144531 -79.582031 107.226562 -72.59375 101.875 -66.75 C 96.53125 -60.90625 90.414062 -55.90625 83.53125 -51.75 C 76.65625 -47.601562 68.738281 -43.945312 59.78125 -40.78125 C 55.738281 -33.90625 51.503906 -27.84375 47.078125 -22.59375 C 42.660156 -17.351562 37.800781 -12.660156 32.5 -8.515625 C 27.207031 -4.367188 21.203125 -0.578125 14.484375 2.859375 C 7.773438 6.304688 0 9.664062 -8.84375 12.9375 Z M -8.84375 12.9375 "/></g></g></g><g fill="#ff0000" fill-opacity="0.502"><g transform="translate(192.444693, 148.554384)"><g><path d="M 22.765625 15.234375 C 22.765625 15.234375 22.4375 14.003906 21.78125 11.546875 C 21.125 9.085938 20.332031 6.109375 19.40625 2.609375 C 18.476562 -0.878906 17.492188 -4.316406 16.453125 -7.703125 C 15.421875 -11.085938 14.46875 -13.648438 13.59375 -15.390625 C 11.957031 -18.890625 9.472656 -21.210938 6.140625 -22.359375 C 2.804688 -23.503906 -0.441406 -24.1875 -3.609375 -24.40625 L 17.03125 -26.375 C 21.40625 -26.914062 26.238281 -27.976562 31.53125 -29.5625 C 36.820312 -31.144531 42.085938 -33.519531 47.328125 -36.6875 C 52.578125 -39.851562 57.359375 -44.082031 61.671875 -49.375 C 65.984375 -54.675781 69.34375 -61.257812 71.75 -69.125 L 81.078125 -99.265625 L 5.234375 -99.265625 C 5.347656 -99.367188 5.757812 -100.617188 6.46875 -103.015625 C 7.175781 -105.421875 8.078125 -108.398438 9.171875 -111.953125 C 10.265625 -115.503906 11.359375 -119.050781 12.453125 -122.59375 C 13.546875 -126.144531 14.445312 -129.117188 15.15625 -131.515625 C 15.863281 -133.921875 16.21875 -135.125 16.21875 -135.125 L 151.015625 -135.296875 L 144.46875 -134.3125 C 139.332031 -133.550781 134.632812 -131.257812 130.375 -127.4375 C 126.125 -123.613281 123.066406 -118.476562 121.203125 -112.03125 L 108.265625 -70.265625 C 106.304688 -63.710938 103.660156 -56.941406 100.328125 -49.953125 C 96.992188 -42.960938 93.003906 -36.273438 88.359375 -29.890625 C 83.722656 -23.503906 78.457031 -17.800781 72.5625 -12.78125 C 65.46875 -6.769531 58.890625 -1.9375 52.828125 1.71875 C 46.765625 5.375 41.492188 8.1875 37.015625 10.15625 C 32.535156 12.125 29.039062 13.460938 26.53125 14.171875 C 24.019531 14.878906 22.765625 15.234375 22.765625 15.234375 Z M 22.765625 15.234375 "/></g></g></g><g fill="#ff0000" fill-opacity="0.502"><g transform="translate(336.58098, 148.554384)"><g><path d="M 32.109375 -33.25 C 25.773438 -31.613281 19.738281 -30.332031 14 -29.40625 C 8.269531 -28.476562 3.601562 -27.820312 0 -27.4375 C -3.601562 -27.050781 -5.40625 -26.859375 -5.40625 -26.859375 L 3.609375 -56.671875 C 10.265625 -57.429688 16.375 -58.191406 21.9375 -58.953125 C 27.507812 -59.722656 32.78125 -60.953125 37.75 -62.640625 C 42.71875 -64.335938 47.660156 -66.878906 52.578125 -70.265625 C 58.035156 -74.085938 62.59375 -78.347656 66.25 -83.046875 C 69.914062 -87.742188 72.835938 -92.519531 75.015625 -97.375 C 77.203125 -102.238281 78.785156 -106.691406 79.765625 -110.734375 L 133.984375 -110.734375 C 128.304688 -109.859375 123.609375 -108.597656 119.890625 -106.953125 C 116.179688 -105.316406 112.960938 -102.863281 110.234375 -99.59375 C 109.359375 -98.601562 108.046875 -96.441406 106.296875 -93.109375 C 104.554688 -89.785156 102.429688 -86.046875 99.921875 -81.890625 C 97.410156 -77.742188 94.625 -73.816406 91.5625 -70.109375 C 84.789062 -61.804688 76.984375 -54.757812 68.140625 -48.96875 L 49.296875 12.28125 L 18.1875 12.28125 Z M 32.109375 -33.25 "/></g></g></g><g fill="#ff0000" fill-opacity="0.502"><g transform="translate(480.717247, 148.554384)"><g><path d="M 80.75 -135.953125 C 72.125 -134.535156 65.570312 -132.132812 61.09375 -128.75 C 56.613281 -125.363281 53.226562 -119.957031 50.9375 -112.53125 L 47.171875 -99.921875 C 45.753906 -95.222656 46.519531 -91.78125 49.46875 -89.59375 C 52.414062 -87.414062 56.675781 -86.328125 62.25 -86.328125 L 134.640625 -86.328125 L 128.09375 -85.34375 C 122.957031 -84.570312 118.257812 -82.273438 114 -78.453125 C 109.738281 -74.628906 106.628906 -69.5 104.671875 -63.0625 L 101.21875 -51.921875 L 53.890625 -51.921875 C 49.847656 -51.921875 46.429688 -52.601562 43.640625 -53.96875 C 40.859375 -55.332031 38.785156 -56.722656 37.421875 -58.140625 C 36.054688 -59.566406 35.320312 -60.332031 35.21875 -60.4375 L 13.109375 12.453125 L -26.859375 12.453125 L 18.515625 -135.953125 Z M 80.75 -135.953125 "/></g></g></g><g fill="#ff0000" fill-opacity="0.502"><g transform="translate(611.749966, 148.554384)"><g><path d="M 21.296875 12.453125 C 21.296875 12.453125 20.941406 11.578125 20.234375 9.828125 C 19.523438 8.078125 18.625 5.945312 17.53125 3.4375 C 16.4375 0.925781 15.234375 -1.582031 13.921875 -4.09375 C 12.609375 -6.601562 11.351562 -8.566406 10.15625 -9.984375 C 8.738281 -11.847656 7.644531 -13.1875 6.875 -14 C 6.113281 -14.820312 5.320312 -15.585938 4.5 -16.296875 C 3.6875 -17.003906 2.40625 -17.960938 0.65625 -19.171875 C 7.207031 -18.953125 13.894531 -19.796875 20.71875 -21.703125 C 27.539062 -23.609375 34.171875 -26.523438 40.609375 -30.453125 C 47.054688 -34.390625 52.847656 -39.195312 57.984375 -44.875 C 60.828125 -47.9375 63.640625 -51.675781 66.421875 -56.09375 C 69.203125 -60.519531 71.875 -65.242188 74.4375 -70.265625 C 77.007812 -75.285156 79.304688 -80.253906 81.328125 -85.171875 C 83.347656 -90.085938 84.957031 -94.507812 86.15625 -98.4375 L 50.609375 -98.4375 C 48.867188 -93.75 47.175781 -89.765625 45.53125 -86.484375 C 43.894531 -83.210938 41.789062 -80.128906 39.21875 -77.234375 C 36.65625 -74.335938 33.03125 -71.035156 28.34375 -67.328125 C 23.75 -63.722656 18.832031 -60.441406 13.59375 -57.484375 C 8.351562 -54.535156 3.382812 -52.050781 -1.3125 -50.03125 C -6.007812 -48.019531 -9.859375 -46.46875 -12.859375 -45.375 C -15.859375 -44.28125 -17.359375 -43.734375 -17.359375 -43.734375 L -5.40625 -83.046875 C -0.925781 -84.242188 3.332031 -86.5625 7.375 -90 C 11.414062 -93.445312 15.179688 -97.84375 18.671875 -103.1875 C 20.742188 -106.351562 22.460938 -109.460938 23.828125 -112.515625 C 25.191406 -115.578125 26.367188 -118.800781 27.359375 -122.1875 C 28.441406 -125.570312 29.203125 -127.945312 29.640625 -129.3125 C 30.078125 -130.675781 30.378906 -131.492188 30.546875 -131.765625 C 30.710938 -132.046875 30.847656 -132.1875 30.953125 -132.1875 L 153.3125 -131.859375 L 146.765625 -130.875 C 140.429688 -129.894531 135.023438 -126.890625 130.546875 -121.859375 C 127.265625 -118.148438 124.425781 -112.363281 122.03125 -104.5 L 117.609375 -89.59375 C 113.234375 -75.070312 107.742188 -61.941406 101.140625 -50.203125 C 94.535156 -38.460938 85.445312 -27.679688 73.875 -17.859375 C 66.769531 -11.847656 60.050781 -6.875 53.71875 -2.9375 C 47.382812 0.988281 41.785156 4.066406 36.921875 6.296875 C 32.066406 8.535156 28.25 10.117188 25.46875 11.046875 C 22.6875 11.984375 21.296875 12.453125 21.296875 12.453125 Z M 21.296875 12.453125 "/></g></g></g><g fill="#ff0000" fill-opacity="0.502"><g transform="translate(772.26571, 148.554384)"><g><path d="M 60.9375 -137.09375 L 116.78125 -137.421875 L 110.234375 -136.28125 C 107.609375 -135.84375 105.066406 -134.992188 102.609375 -133.734375 C 100.160156 -132.484375 97.953125 -130.875 95.984375 -128.90625 C 91.941406 -125.195312 88.9375 -120.226562 86.96875 -114 L 63.71875 -36.859375 L 30.296875 -36.859375 Z M 15.234375 12.28125 L 27.1875 -26.703125 L 82.546875 -27.03125 L 76 -25.875 C 70.863281 -25 66.164062 -22.675781 61.90625 -18.90625 C 57.65625 -15.144531 54.601562 -10.046875 52.75 -3.609375 L 48.15625 12.28125 Z M 15.234375 12.28125 "/></g></g></g><g fill="#ff0000" fill-opacity="1"><g transform="translate(24.836372, 144.459472)"><g><path d="M -8.84375 12.9375 C -8.84375 12.9375 -9.5 11.132812 -10.8125 7.53125 C -12.125 3.925781 -13.925781 -0.4375 -16.21875 -5.5625 C -18.289062 -9.71875 -20.0625 -12.859375 -21.53125 -14.984375 C -23.007812 -17.117188 -23.75 -18.1875 -23.75 -18.1875 C -14.46875 -20.039062 -6.304688 -22.738281 0.734375 -26.28125 C 7.773438 -29.832031 14.050781 -34.664062 19.5625 -40.78125 C 25.082031 -46.894531 30.082031 -54.8125 34.5625 -64.53125 C 43.1875 -65.84375 50.445312 -67.453125 56.34375 -69.359375 C 62.238281 -71.273438 67.125 -73.597656 71 -76.328125 C 74.882812 -79.054688 78.050781 -82.382812 80.5 -86.3125 C 82.957031 -90.25 85.113281 -94.894531 86.96875 -100.25 L 10.15625 -100.25 L 20.46875 -134.96875 L 157.40625 -135.125 L 151.015625 -133.984375 C 146.546875 -133.222656 142.425781 -131.394531 138.65625 -128.5 C 134.882812 -125.601562 131.800781 -121.644531 129.40625 -116.625 C 125.363281 -105.488281 121.101562 -95.851562 116.625 -87.71875 C 112.144531 -79.582031 107.226562 -72.59375 101.875 -66.75 C 96.53125 -60.90625 90.414062 -55.90625 83.53125 -51.75 C 76.65625 -47.601562 68.738281 -43.945312 59.78125 -40.78125 C 55.738281 -33.90625 51.503906 -27.84375 47.078125 -22.59375 C 42.660156 -17.351562 37.800781 -12.660156 32.5 -8.515625 C 27.207031 -4.367188 21.203125 -0.578125 14.484375 2.859375 C 7.773438 6.304688 0 9.664062 -8.84375 12.9375 Z M -8.84375 12.9375 "/></g></g></g><g fill="#ff0000" fill-opacity="1"><g transform="translate(185.352097, 144.459472)"><g><path d="M 22.765625 15.234375 C 22.765625 15.234375 22.4375 14.003906 21.78125 11.546875 C 21.125 9.085938 20.332031 6.109375 19.40625 2.609375 C 18.476562 -0.878906 17.492188 -4.316406 16.453125 -7.703125 C 15.421875 -11.085938 14.46875 -13.648438 13.59375 -15.390625 C 11.957031 -18.890625 9.472656 -21.210938 6.140625 -22.359375 C 2.804688 -23.503906 -0.441406 -24.1875 -3.609375 -24.40625 L 17.03125 -26.375 C 21.40625 -26.914062 26.238281 -27.976562 31.53125 -29.5625 C 36.820312 -31.144531 42.085938 -33.519531 47.328125 -36.6875 C 52.578125 -39.851562 57.359375 -44.082031 61.671875 -49.375 C 65.984375 -54.675781 69.34375 -61.257812 71.75 -69.125 L 81.078125 -99.265625 L 5.234375 -99.265625 C 5.347656 -99.367188 5.757812 -100.617188 6.46875 -103.015625 C 7.175781 -105.421875 8.078125 -108.398438 9.171875 -111.953125 C 10.265625 -115.503906 11.359375 -119.050781 12.453125 -122.59375 C 13.546875 -126.144531 14.445312 -129.117188 15.15625 -131.515625 C 15.863281 -133.921875 16.21875 -135.125 16.21875 -135.125 L 151.015625 -135.296875 L 144.46875 -134.3125 C 139.332031 -133.550781 134.632812 -131.257812 130.375 -127.4375 C 126.125 -123.613281 123.066406 -118.476562 121.203125 -112.03125 L 108.265625 -70.265625 C 106.304688 -63.710938 103.660156 -56.941406 100.328125 -49.953125 C 96.992188 -42.960938 93.003906 -36.273438 88.359375 -29.890625 C 83.722656 -23.503906 78.457031 -17.800781 72.5625 -12.78125 C 65.46875 -6.769531 58.890625 -1.9375 52.828125 1.71875 C 46.765625 5.375 41.492188 8.1875 37.015625 10.15625 C 32.535156 12.125 29.039062 13.460938 26.53125 14.171875 C 24.019531 14.878906 22.765625 15.234375 22.765625 15.234375 Z M 22.765625 15.234375 "/></g></g></g><g fill="#ff0000" fill-opacity="1"><g transform="translate(329.488384, 144.459472)"><g><path d="M 32.109375 -33.25 C 25.773438 -31.613281 19.738281 -30.332031 14 -29.40625 C 8.269531 -28.476562 3.601562 -27.820312 0 -27.4375 C -3.601562 -27.050781 -5.40625 -26.859375 -5.40625 -26.859375 L 3.609375 -56.671875 C 10.265625 -57.429688 16.375 -58.191406 21.9375 -58.953125 C 27.507812 -59.722656 32.78125 -60.953125 37.75 -62.640625 C 42.71875 -64.335938 47.660156 -66.878906 52.578125 -70.265625 C 58.035156 -74.085938 62.59375 -78.347656 66.25 -83.046875 C 69.914062 -87.742188 72.835938 -92.519531 75.015625 -97.375 C 77.203125 -102.238281 78.785156 -106.691406 79.765625 -110.734375 L 133.984375 -110.734375 C 128.304688 -109.859375 123.609375 -108.597656 119.890625 -106.953125 C 116.179688 -105.316406 112.960938 -102.863281 110.234375 -99.59375 C 109.359375 -98.601562 108.046875 -96.441406 106.296875 -93.109375 C 104.554688 -89.785156 102.429688 -86.046875 99.921875 -81.890625 C 97.410156 -77.742188 94.625 -73.816406 91.5625 -70.109375 C 84.789062 -61.804688 76.984375 -54.757812 68.140625 -48.96875 L 49.296875 12.28125 L 18.1875 12.28125 Z M 32.109375 -33.25 "/></g></g></g><g fill="#ff0000" fill-opacity="1"><g transform="translate(473.62465, 144.459472)"><g><path d="M 80.75 -135.953125 C 72.125 -134.535156 65.570312 -132.132812 61.09375 -128.75 C 56.613281 -125.363281 53.226562 -119.957031 50.9375 -112.53125 L 47.171875 -99.921875 C 45.753906 -95.222656 46.519531 -91.78125 49.46875 -89.59375 C 52.414062 -87.414062 56.675781 -86.328125 62.25 -86.328125 L 134.640625 -86.328125 L 128.09375 -85.34375 C 122.957031 -84.570312 118.257812 -82.273438 114 -78.453125 C 109.738281 -74.628906 106.628906 -69.5 104.671875 -63.0625 L 101.21875 -51.921875 L 53.890625 -51.921875 C 49.847656 -51.921875 46.429688 -52.601562 43.640625 -53.96875 C 40.859375 -55.332031 38.785156 -56.722656 37.421875 -58.140625 C 36.054688 -59.566406 35.320312 -60.332031 35.21875 -60.4375 L 13.109375 12.453125 L -26.859375 12.453125 L 18.515625 -135.953125 Z M 80.75 -135.953125 "/></g></g></g><g fill="#ff0000" fill-opacity="1"><g transform="translate(604.657369, 144.459472)"><g><path d="M 21.296875 12.453125 C 21.296875 12.453125 20.941406 11.578125 20.234375 9.828125 C 19.523438 8.078125 18.625 5.945312 17.53125 3.4375 C 16.4375 0.925781 15.234375 -1.582031 13.921875 -4.09375 C 12.609375 -6.601562 11.351562 -8.566406 10.15625 -9.984375 C 8.738281 -11.847656 7.644531 -13.1875 6.875 -14 C 6.113281 -14.820312 5.320312 -15.585938 4.5 -16.296875 C 3.6875 -17.003906 2.40625 -17.960938 0.65625 -19.171875 C 7.207031 -18.953125 13.894531 -19.796875 20.71875 -21.703125 C 27.539062 -23.609375 34.171875 -26.523438 40.609375 -30.453125 C 47.054688 -34.390625 52.847656 -39.195312 57.984375 -44.875 C 60.828125 -47.9375 63.640625 -51.675781 66.421875 -56.09375 C 69.203125 -60.519531 71.875 -65.242188 74.4375 -70.265625 C 77.007812 -75.285156 79.304688 -80.253906 81.328125 -85.171875 C 83.347656 -90.085938 84.957031 -94.507812 86.15625 -98.4375 L 50.609375 -98.4375 C 48.867188 -93.75 47.175781 -89.765625 45.53125 -86.484375 C 43.894531 -83.210938 41.789062 -80.128906 39.21875 -77.234375 C 36.65625 -74.335938 33.03125 -71.035156 28.34375 -67.328125 C 23.75 -63.722656 18.832031 -60.441406 13.59375 -57.484375 C 8.351562 -54.535156 3.382812 -52.050781 -1.3125 -50.03125 C -6.007812 -48.019531 -9.859375 -46.46875 -12.859375 -45.375 C -15.859375 -44.28125 -17.359375 -43.734375 -17.359375 -43.734375 L -5.40625 -83.046875 C -0.925781 -84.242188 3.332031 -86.5625 7.375 -90 C 11.414062 -93.445312 15.179688 -97.84375 18.671875 -103.1875 C 20.742188 -106.351562 22.460938 -109.460938 23.828125 -112.515625 C 25.191406 -115.578125 26.367188 -118.800781 27.359375 -122.1875 C 28.441406 -125.570312 29.203125 -127.945312 29.640625 -129.3125 C 30.078125 -130.675781 30.378906 -131.492188 30.546875 -131.765625 C 30.710938 -132.046875 30.847656 -132.1875 30.953125 -132.1875 L 153.3125 -131.859375 L 146.765625 -130.875 C 140.429688 -129.894531 135.023438 -126.890625 130.546875 -121.859375 C 127.265625 -118.148438 124.425781 -112.363281 122.03125 -104.5 L 117.609375 -89.59375 C 113.234375 -75.070312 107.742188 -61.941406 101.140625 -50.203125 C 94.535156 -38.460938 85.445312 -27.679688 73.875 -17.859375 C 66.769531 -11.847656 60.050781 -6.875 53.71875 -2.9375 C 47.382812 0.988281 41.785156 4.066406 36.921875 6.296875 C 32.066406 8.535156 28.25 10.117188 25.46875 11.046875 C 22.6875 11.984375 21.296875 12.453125 21.296875 12.453125 Z M 21.296875 12.453125 "/></g></g></g><g fill="#ff0000" fill-opacity="1"><g transform="translate(765.173114, 144.459472)"><g><path d="M 60.9375 -137.09375 L 116.78125 -137.421875 L 110.234375 -136.28125 C 107.609375 -135.84375 105.066406 -134.992188 102.609375 -133.734375 C 100.160156 -132.484375 97.953125 -130.875 95.984375 -128.90625 C 91.941406 -125.195312 88.9375 -120.226562 86.96875 -114 L 63.71875 -36.859375 L 30.296875 -36.859375 Z M 15.234375 12.28125 L 27.1875 -26.703125 L 82.546875 -27.03125 L 76 -25.875 C 70.863281 -25 66.164062 -22.675781 61.90625 -18.90625 C 57.65625 -15.144531 54.601562 -10.046875 52.75 -3.609375 L 48.15625 12.28125 Z M 15.234375 12.28125 "/></g></g></g></g></g></svg>